<svg width="214mm" height="214mm" viewBox="0 0 214.000000 214.000000"><g style="stroke:black; fill:none; stroke-width:.3;" transform="translate(0.000000,0.000000)">
<rect x="0" y="0" width="214.000000" height="214.000000" />
<g transform="translate(7.000000,7.000000)">
<rect x="5.000000" y="5.000000" width="15.000000" height="15.000000" rx="1.5" />
<rect x="5.000000" y="30.000000" width="15.000000" height="15.000000" rx="1.5" />
<rect x="5.000000" y="55.000000" width="15.000000" height="15.000000" rx="1.5" />
<rect x="5.000000" y="80.000000" width="15.000000" height="15.000000" rx="1.5" />
<rect x="5.000000" y="105.000000" width="15.000000" height="15.000000" rx="1.5" />
<rect x="5.000000" y="130.000000" width="15.000000" height="15.000000" rx="1.5" />
<rect x="5.000000" y="155.000000" width="15.000000" height="15.000000" rx="1.5" />
<rect x="5.000000" y="180.000000" width="15.000000" height="15.000000" rx="1.5" />
<rect x="30.000000" y="5.000000" width="15.000000" height="15.000000" rx="1.5" />
<rect x="30.000000" y="30.000000" width="15.000000" height="15.000000" rx="1.5" />
<rect x="30.000000" y="55.000000" width="15.000000" height="15.000000" rx="1.5" />
<rect x="30.000000" y="80.000000" width="15.000000" height="15.000000" rx="1.5" />
<rect x="30.000000" y="105.000000" width="15.000000" height="15.000000" rx="1.5" />
<rect x="30.000000" y="130.000000" width="15.000000" height="15.000000" rx="1.5" />
<rect x="30.000000" y="155.000000" width="15.000000" height="15.000000" rx="1.5" />
<rect x="30.000000" y="180.000000" width="15.000000" height="15.000000" rx="1.5" />
<rect x="55.000000" y="5.000000" width="15.000000" height="15.000000" rx="1.5" />
<rect x="55.000000" y="30.000000" width="15.000000" height="15.000000" rx="1.5" />
<rect x="55.000000" y="55.000000" width="15.000000" height="15.000000" rx="1.5" />
<rect x="55.000000" y="80.000000" width="15.000000" height="15.000000" rx="1.5" />
<rect x="55.000000" y="105.000000" width="15.000000" height="15.000000" rx="1.5" />
<rect x="55.000000" y="130.000000" width="15.000000" height="15.000000" rx="1.5" />
<rect x="55.000000" y="155.000000" width="15.000000" height="15.000000" rx="1.5" />
<rect x="55.000000" y="180.000000" width="15.000000" height="15.000000" rx="1.5" />
<rect x="80.000000" y="5.000000" width="15.000000" height="15.000000" rx="1.5" />
<rect x="80.000000" y="30.000000" width="15.000000" height="15.000000" rx="1.5" />
<rect x="80.000000" y="55.000000" width="15.000000" height="15.000000" rx="1.5" />
<rect x="80.000000" y="80.000000" width="15.000000" height="15.000000" rx="1.5" />
<rect x="80.000000" y="105.000000" width="15.000000" height="15.000000" rx="1.5" />
<rect x="80.000000" y="130.000000" width="15.000000" height="15.000000" rx="1.5" />
<rect x="80.000000" y="155.000000" width="15.000000" height="15.000000" rx="1.5" />
<rect x="80.000000" y="180.000000" width="15.000000" height="15.000000" rx="1.5" />
<rect x="105.000000" y="5.000000" width="15.000000" height="15.000000" rx="1.5" />
<rect x="105.000000" y="30.000000" width="15.000000" height="15.000000" rx="1.5" />
<rect x="105.000000" y="55.000000" width="15.000000" height="15.000000" rx="1.5" />
<rect x="105.000000" y="80.000000" width="15.000000" height="15.000000" rx="1.5" />
<rect x="105.000000" y="105.000000" width="15.000000" height="15.000000" rx="1.5" />
<rect x="105.000000" y="130.000000" width="15.000000" height="15.000000" rx="1.5" />
<rect x="105.000000" y="155.000000" width="15.000000" height="15.000000" rx="1.5" />
<rect x="105.000000" y="180.000000" width="15.000000" height="15.000000" rx="1.5" />
<rect x="130.000000" y="5.000000" width="15.000000" height="15.000000" rx="1.5" />
<rect x="130.000000" y="30.000000" width="15.000000" height="15.000000" rx="1.5" />
<rect x="130.000000" y="55.000000" width="15.000000" height="15.000000" rx="1.5" />
<rect x="130.000000" y="80.000000" width="15.000000" height="15.000000" rx="1.5" />
<rect x="130.000000" y="105.000000" width="15.000000" height="15.000000" rx="1.5" />
<rect x="130.000000" y="130.000000" width="15.000000" height="15.000000" rx="1.5" />
<rect x="130.000000" y="155.000000" width="15.000000" height="15.000000" rx="1.5" />
<rect x="130.000000" y="180.000000" width="15.000000" height="15.000000" rx="1.5" />
<rect x="155.000000" y="5.000000" width="15.000000" height="15.000000" rx="1.5" />
<rect x="155.000000" y="30.000000" width="15.000000" height="15.000000" rx="1.5" />
<rect x="155.000000" y="55.000000" width="15.000000" height="15.000000" rx="1.5" />
<rect x="155.000000" y="80.000000" width="15.000000" height="15.000000" rx="1.5" />
<rect x="155.000000" y="105.000000" width="15.000000" height="15.000000" rx="1.5" />
<rect x="155.000000" y="130.000000" width="15.000000" height="15.000000" rx="1.5" />
<rect x="155.000000" y="155.000000" width="15.000000" height="15.000000" rx="1.5" />
<rect x="155.000000" y="180.000000" width="15.000000" height="15.000000" rx="1.5" />
<rect x="180.000000" y="5.000000" width="15.000000" height="15.000000" rx="1.5" />
<rect x="180.000000" y="30.000000" width="15.000000" height="15.000000" rx="1.5" />
<rect x="180.000000" y="55.000000" width="15.000000" height="15.000000" rx="1.5" />
<rect x="180.000000" y="80.000000" width="15.000000" height="15.000000" rx="1.5" />
<rect x="180.000000" y="105.000000" width="15.000000" height="15.000000" rx="1.5" />
<rect x="180.000000" y="130.000000" width="15.000000" height="15.000000" rx="1.5" />
<rect x="180.000000" y="155.000000" width="15.000000" height="15.000000" rx="1.5" />
<rect x="180.000000" y="180.000000" width="15.000000" height="15.000000" rx="1.5" />
<rect x="0" y="0" width="200.000000" height="200.000000" style="stroke-dasharray:2.5,2.5;" />
</g>
</g></svg>
